<svg width="20" height="20" viewBox="0 0 20 20" fill="none" xmlns="http://www.w3.org/2000/svg">
<g clip-path="url(#clip0)">
<path d="M6.73918 9.34782L19.3478 9.34782C19.7078 9.34782 20 9.63999 20 9.99999C20 10.36 19.7078 10.6522 19.3478 10.6522L6.73918 10.6522C6.37918 10.6522 6.08701 10.36 6.08701 9.99999C6.08701 9.63999 6.37918 9.34782 6.73918 9.34782Z" fill="#28FFB2"/>
<path d="M10.2174 5.8696C10.3844 5.8696 10.5513 5.93297 10.6783 6.06083C10.9331 6.31558 10.9331 6.72861 10.6783 6.98352L7.66093 10.0008L10.6783 13.0182C10.9331 13.273 10.9331 13.6861 10.6783 13.9409C10.4234 14.1956 10.0104 14.1956 9.75566 13.9409L6.27745 10.4625C6.0227 10.2078 6.0227 9.79475 6.27745 9.53999L9.75566 6.06178C9.88351 5.93297 10.0504 5.8696 10.2174 5.8696V5.8696Z" fill="#28FFB2"/>
<path d="M9.56527 0.434735C13.5227 0.434734 17.0165 2.81558 18.4679 6.50094C18.6 6.83483 18.4349 7.21394 18.1 7.34609C17.7662 7.47649 17.3861 7.31393 17.2539 6.97733C16.0009 3.7956 12.9827 1.73908 9.56527 1.73908C5.01057 1.73908 1.30436 5.4453 1.30436 10C1.30436 14.5547 5.01057 18.2609 9.56527 18.2609C12.9827 18.2609 16.0009 16.2044 17.2539 13.0227C17.3871 12.6861 17.7662 12.5235 18.1 12.6539C18.4349 12.7861 18.6 13.1652 18.4679 13.4991C17.0165 17.1844 13.5227 19.5653 9.56527 19.5653C4.29136 19.5653 1.04096e-05 15.2739 9.94855e-06 10C9.48749e-06 4.72609 4.29136 0.434735 9.56527 0.434735V0.434735Z" fill="#28FFB2"/>
</g>
<defs>
<clipPath id="clip0">
<rect width="20" height="20" fill="white" transform="translate(20 20) rotate(180)"/>
</clipPath>
</defs>
</svg>
